<?xml version="1.0" standalone="no"?>
<!DOCTYPE svg PUBLIC "-//W3C//DTD SVG 20010904//EN"
 "http://www.w3.org/TR/2001/REC-SVG-20010904/DTD/svg10.dtd">
<svg version="1.0" xmlns="http://www.w3.org/2000/svg"
 width="331.000000pt" height="153.000000pt" viewBox="0 0 331.000000 153.000000"
 preserveAspectRatio="xMidYMid meet">
<metadata>
Created by potrace 1.16, written by Peter Selinger 2001-2019
</metadata>
<g transform="translate(0.000000,153.000000) scale(0.100000,-0.100000)"
fill="#000000" stroke="none">
<path d="M630 1492 c0 -10 5 -23 12 -30 16 -16 9 -15 -42 3 -87 31 -89 19 -16
-72 94 -117 150 -230 170 -343 6 -30 4 -28 -13 14 -24 58 -70 109 -126 139
-38 21 -56 22 -308 25 -230 3 -267 1 -267 -11 0 -10 15 -17 48 -22 26 -4 61
-12 77 -19 29 -12 28 -13 -39 -20 -82 -9 -96 -14 -96 -31 0 -7 18 -15 43 -18
23 -3 73 -16 112 -28 60 -18 78 -30 135 -88 47 -47 79 -92 112 -156 57 -110
108 -248 108 -290 0 -17 7 -40 15 -51 14 -20 11 -23 -63 -57 -103 -47 -175
-69 -209 -64 -26 4 -26 4 5 6 40 1 48 20 28 59 -25 49 -123 81 -154 50 -25
-25 -12 38 23 105 39 76 42 87 21 87 -8 0 -27 -20 -43 -45 -15 -25 -39 -62
-52 -82 -14 -24 -24 -54 -25 -82 0 -26 -5 -49 -10 -52 -20 -15 -18 -95 2 -136
40 -78 155 -98 215 -38 26 26 20 43 -15 48 -20 2 -11 4 25 5 31 1 57 6 57 10
0 5 24 14 53 21 28 6 81 26 117 44 l65 32 1 -45 c0 -29 12 -70 33 -113 38 -79
71 -102 135 -94 60 8 23 -9 -70 -33 -43 -11 -106 -20 -141 -20 -47 0 -63 -3
-63 -14 0 -9 21 -18 63 -25 225 -39 410 30 542 203 l30 39 0 226 c0 218 1 229
28 316 15 50 57 150 92 222 36 73 65 137 65 143 0 28 -34 3 -76 -56 -96 -135
-168 -353 -203 -618 -26 -202 -73 -294 -181 -355 -38 -21 -40 -22 -29 -3 10
16 8 27 -11 67 -13 26 -30 92 -39 146 -11 66 -21 99 -30 101 -7 2 21 32 63 68
126 105 155 163 63 125 -15 -6 -16 -4 -7 20 5 14 39 70 74 123 148 226 236
393 236 449 0 32 -2 33 -39 33 -52 0 -71 8 -71 30 0 14 -11 18 -58 22 -47 3
-87 18 -206 76 -82 40 -152 72 -157 72 -5 0 -9 -8 -9 -18z m357 -140 c53 -4
63 -8 63 -24 0 -21 36 -38 81 -38 27 0 30 -3 24 -22 -15 -53 -89 -194 -180
-343 -54 -88 -111 -182 -126 -209 -33 -60 -33 -60 -49 114 -26 277 -74 409
-207 574 -33 41 -48 66 -37 62 42 -16 104 -30 109 -24 4 4 -1 18 -11 33 -15
23 -1 18 127 -46 120 -60 154 -73 206 -77z m-385 -160 c62 -31 111 -89 133
-158 15 -48 17 -82 12 -241 -3 -112 -10 -190 -16 -196 -13 -13 -14 -37 -2 -37
5 0 33 19 63 42 29 24 69 53 88 66 49 33 -67 -85 -137 -140 -59 -45 -67 -63
-25 -55 l27 6 16 -99 c9 -54 26 -117 37 -141 18 -36 19 -44 6 -56 -7 -8 -30
-17 -49 -20 -31 -5 -39 -1 -73 33 -51 51 -91 163 -71 200 18 35 7 38 -48 11
-26 -13 -82 -36 -123 -52 -41 -15 -83 -31 -92 -36 -10 -5 -38 -9 -63 -9 -33 0
-45 -4 -45 -15 0 -9 9 -15 25 -15 34 0 31 -16 -7 -40 -39 -24 -69 -25 -108 -5
-62 32 -92 101 -67 157 8 18 15 53 15 77 1 24 7 51 15 60 8 9 24 34 35 56 40
77 64 94 28 20 -38 -79 -53 -145 -32 -145 8 0 19 7 26 15 24 29 90 9 129 -41
25 -32 20 -44 -20 -44 -20 0 -29 -5 -29 -16 0 -14 9 -16 64 -12 48 4 91 18
172 54 109 50 131 67 95 77 -14 3 -21 16 -26 43 -11 76 -48 177 -103 287 -44
89 -69 126 -122 178 -57 58 -75 70 -135 88 -39 12 -89 25 -113 28 -57 8 -37
19 50 28 108 11 90 33 -57 69 -11 2 93 4 230 3 240 -2 252 -3 297 -25z"/>
<path d="M1361 920 c-134 -33 -167 -221 -52 -297 63 -42 209 -21 219 32 8 37
-75 94 -93 65 -10 -16 -51 -11 -68 8 -24 27 -21 59 8 78 21 14 30 14 54 4 27
-11 33 -9 66 16 20 15 35 34 33 42 -7 38 -104 68 -167 52z m119 -25 c37 -19
37 -25 2 -58 -20 -19 -31 -24 -42 -17 -25 16 -58 11 -86 -13 -25 -22 -26 -25
-14 -61 15 -47 52 -65 91 -44 23 14 28 13 57 -12 l32 -26 -25 -24 c-54 -51
-170 -33 -218 34 -28 39 -29 131 -3 171 40 60 139 84 206 50z"/>
<path d="M1657 916 c-72 -27 -107 -78 -107 -158 0 -55 26 -107 69 -135 43 -29
130 -31 181 -5 42 22 80 90 80 142 0 48 -38 121 -75 142 -43 25 -104 30 -148
14z m140 -26 c37 -22 58 -58 66 -114 18 -113 -109 -202 -217 -151 -57 27 -81
69 -80 137 1 65 19 99 67 128 43 26 121 26 164 0z"/>
<path d="M1962 919 c-50 -15 -62 -54 -62 -199 l0 -120 55 0 55 0 0 110 c0 67
4 110 10 110 6 0 10 -43 10 -110 l0 -110 55 0 55 0 0 104 c0 59 4 108 10 111
6 4 10 -33 10 -104 l0 -111 55 0 55 0 0 131 c0 74 -5 139 -11 151 -22 41 -116
57 -155 27 -7 -6 -26 -3 -47 6 -41 17 -48 17 -95 4z m105 -28 c21 -20 21 -20
39 0 23 26 93 26 125 0 23 -18 24 -27 27 -150 l4 -131 -47 0 -47 0 2 88 c3
120 2 132 -14 132 -25 0 -30 -22 -28 -122 l3 -98 -46 0 -47 0 2 88 c4 128 3
132 -20 132 -23 0 -24 -4 -20 -132 l2 -88 -47 0 -46 0 3 125 c4 115 6 126 28
150 30 32 96 35 127 6z"/>
<path d="M2360 913 c-56 -29 -70 -69 -70 -200 l0 -113 55 0 55 0 1 58 c1 31 3
49 6 40 6 -24 40 -23 80 2 43 26 61 88 42 144 -25 71 -103 102 -169 69z m123
-23 c33 -26 52 -82 37 -110 -6 -11 -8 -20 -5 -20 16 0 -30 -50 -56 -60 -35
-15 -35 -15 -44 33 -6 30 -4 37 9 37 21 0 22 48 0 57 -31 11 -38 -14 -36 -117
l3 -100 -46 0 -47 0 3 98 c1 53 6 112 11 129 13 46 52 73 103 73 27 0 51 -7
68 -20z"/>
<path d="M2624 919 c-61 -18 -69 -37 -72 -185 l-4 -134 56 0 56 0 0 35 c0 44
18 46 22 3 3 -33 4 -33 60 -36 l56 -3 -4 137 c-4 136 -9 156 -43 173 -27 15
-95 20 -127 10z m130 -30 c26 -20 26 -22 26 -150 l0 -130 -42 3 c-40 3 -43 5
-46 36 -2 24 -8 32 -23 32 -15 0 -19 -7 -19 -35 0 -35 0 -35 -46 -35 l-46 0 5
127 c4 123 5 127 31 150 37 31 121 33 160 2z"/>
<path d="M2891 920 c-68 -16 -76 -34 -79 -185 l-4 -135 56 0 55 0 3 108 c2 63
7 107 13 107 6 0 11 -44 13 -107 l3 -108 56 0 56 0 -7 131 c-7 135 -14 162
-44 177 -28 15 -85 20 -121 12z m124 -35 c24 -23 25 -30 25 -150 l0 -125 -40
0 -40 0 0 105 c0 87 -3 107 -16 112 -31 11 -38 -14 -36 -117 l3 -100 -46 0
-46 0 3 126 c4 124 5 127 32 150 40 35 127 34 161 -1z"/>
<path d="M3070 830 c0 -88 1 -90 30 -112 26 -19 30 -28 30 -70 l0 -48 55 0 55
0 0 48 c0 42 4 51 30 70 29 22 30 24 30 112 l0 90 -50 0 -50 0 0 -70 c0 -38
-4 -70 -9 -70 -14 0 -21 28 -21 86 l0 54 -50 0 -50 0 0 -90z m90 10 c0 -68 1
-70 25 -70 24 0 25 2 25 70 l0 70 41 0 40 0 -2 -81 c-2 -76 -3 -82 -30 -102
-25 -18 -29 -28 -29 -69 l0 -48 -45 0 -45 0 0 47 c0 39 -5 51 -27 68 -23 20
-27 30 -31 103 l-5 82 42 0 41 0 0 -70z"/>
</g>
</svg>
